<svg width="112" height="24" viewBox="0 0 112 24" fill="none" xmlns="http://www.w3.org/2000/svg">
<path d="M41.3006 0.910406L41.3218 2.95978C40.755 2.22048 40.0346 1.6334 39.1553 1.20395C38.2708 0.779941 37.1743 0.5625 35.8713 0.5625C34.7642 0.5625 33.7314 0.76907 32.7726 1.17133C31.8139 1.5736 30.9876 2.15525 30.2884 2.90542C29.5892 3.65559 29.0383 4.55254 28.6411 5.58538C28.2491 6.61279 28.0531 7.73804 28.0531 8.96658C28.0531 10.1951 28.2491 11.3693 28.6411 12.4293C29.033 13.4785 29.5839 14.3863 30.2884 15.1364C30.9876 15.8866 31.8139 16.4791 32.7726 16.9086C33.7314 17.3326 34.7642 17.55 35.8713 17.55C37.1796 17.55 38.2761 17.3272 39.1553 16.8868C40.0346 16.452 40.755 15.8703 41.3218 15.1528L41.3006 17.2021H45.109V0.910406H41.3006ZM40.9139 10.9725C40.6914 11.5867 40.3683 12.1195 39.9499 12.5707C39.5314 13.0273 39.0335 13.3861 38.4456 13.647C37.8576 13.9188 37.2114 14.0438 36.5175 14.0438C35.8236 14.0438 35.1827 13.9133 34.6212 13.647C34.0545 13.3806 33.5724 13.0273 33.1699 12.5707C32.762 12.1195 32.4442 11.5922 32.2218 10.9725C31.994 10.3636 31.8828 9.70587 31.8828 9.01007C31.8828 8.31426 31.994 7.66737 32.2218 7.06941C32.4442 6.46601 32.762 5.94415 33.1699 5.50384C33.5724 5.06352 34.0598 4.71562 34.6212 4.46012C35.188 4.19919 35.8183 4.07417 36.5175 4.07417C37.2167 4.07417 37.8576 4.19919 38.4456 4.46012C39.0335 4.71562 39.5314 5.06352 39.9499 5.50384C40.3683 5.94415 40.6914 6.46058 40.9139 7.06941C41.1417 7.67281 41.2529 8.31969 41.2529 9.01007C41.2529 9.70044 41.1417 10.3636 40.9139 10.9725Z" fill="#212120"/>
<path d="M58.918 0.910406L54.6169 13.2828L50.3212 0.910406H46.1578L52.3499 17.2076H56.8522L63.0813 0.910406H58.918Z" fill="#212120"/>
<path d="M78.0079 5.44948C77.6265 4.43838 77.081 3.57405 76.3659 2.84563C75.6561 2.1172 74.8086 1.55186 73.8128 1.15503C72.817 0.763633 71.7153 0.5625 70.497 0.5625C69.1622 0.5625 67.9862 0.801685 66.9745 1.28005C65.9575 1.75842 65.1048 2.38356 64.4215 3.17179C63.7276 3.96001 63.2032 4.86782 62.8483 5.87892C62.4828 6.90089 62.308 7.96635 62.308 9.0753C62.308 10.1842 62.4775 11.2225 62.8324 12.2391C63.182 13.261 63.6958 14.1634 64.3738 14.9462C65.0518 15.7344 65.8993 16.365 66.911 16.8379C67.928 17.3163 69.088 17.5555 70.3963 17.5555C72.335 17.5555 74.0088 17.0608 75.4178 16.0769C76.832 15.093 77.8066 13.7285 78.3522 11.9944L74.3902 12.0325C74.0088 12.7011 73.5003 13.2121 72.8806 13.56C72.2608 13.9079 71.5246 14.0764 70.6665 14.0764C69.8984 14.0764 69.2311 13.9514 68.6749 13.6905C68.1081 13.435 67.6367 13.0871 67.25 12.6359C66.8686 12.1847 66.5773 11.6465 66.3866 11.0214C66.2965 10.7224 66.2277 10.4126 66.18 10.0864H78.4846C78.5323 9.87983 78.5588 9.67326 78.5694 9.46125C78.58 9.25469 78.5905 9.02094 78.5905 8.76544C78.5905 7.56409 78.3946 6.45514 78.0079 5.44948ZM66.2595 7.44449C66.2913 7.29229 66.323 7.15095 66.3654 7.00961C66.5455 6.40078 66.821 5.85718 67.1759 5.40055C67.5413 4.93306 67.9916 4.57428 68.5477 4.30248C69.1039 4.03611 69.7395 3.90565 70.4599 3.90565C70.9525 3.90565 71.4451 3.98719 71.9324 4.15027C72.4145 4.31335 72.8541 4.54166 73.2514 4.84608C73.6433 5.14506 73.9717 5.52015 74.2366 5.96046C74.4961 6.40078 74.6604 6.89546 74.7239 7.44993H66.2542L66.2595 7.44449Z" fill="#212120"/>
<path d="M95.2068 0.910406L87.7276 19.2896C87.4151 20.056 87.2774 20.3822 86.8855 21.0073C86.4882 21.6325 86.0326 22.1598 85.5083 22.6055C84.9892 23.0459 84.3906 23.3883 83.6967 23.6275C83.0187 23.8667 82.2242 23.9917 81.3132 23.9972H80.3703V20.5507H81.096C82.0282 20.5344 82.738 20.2952 83.2253 19.8386C83.7338 19.3657 83.9245 19.0395 84.2423 18.1371L84.5124 17.3707L77.8066 0.899534H82.007L86.5094 13.1088L91.0117 0.899534H95.2068V0.910406Z" fill="#212120"/>
<path d="M110.647 5.71041C110.218 4.66669 109.625 3.77518 108.873 3.01414C108.115 2.26397 107.215 1.66601 106.177 1.22569C105.144 0.785378 104.01 0.5625 102.797 0.5625C101.584 0.5625 100.414 0.785378 99.3754 1.22569C98.3425 1.66601 97.4421 2.26397 96.6846 3.01414C95.9272 3.76975 95.3392 4.66669 94.9102 5.71041C94.4812 6.75412 94.2693 7.87394 94.2693 9.0753C94.2693 10.2767 94.4812 11.4019 94.9102 12.4348C95.3392 13.4676 95.9272 14.3591 96.6846 15.1256C97.4421 15.8921 98.3425 16.49 99.3754 16.9195C100.414 17.3435 101.558 17.5609 102.797 17.5609C104.037 17.5609 105.144 17.3435 106.177 16.9195C107.215 16.49 108.115 15.8921 108.873 15.1256C109.625 14.3645 110.218 13.4676 110.647 12.4348C111.071 11.4019 111.288 10.2875 111.288 9.0753C111.288 7.86307 111.071 6.74868 110.647 5.71041ZM107.109 10.9888C106.871 11.5922 106.547 12.1086 106.145 12.538C105.737 12.9675 105.244 13.3045 104.672 13.5654C104.095 13.8209 103.47 13.946 102.797 13.946C102.125 13.946 101.457 13.8209 100.885 13.5654C100.308 13.3045 99.8151 12.9675 99.4125 12.538C99.0099 12.1086 98.6868 11.5976 98.4485 10.9888C98.2101 10.3854 98.0883 9.74936 98.0883 9.0753C98.0883 8.40123 98.2101 7.7326 98.4485 7.13464C98.6868 6.53124 99.0099 6.01482 99.4125 5.59081C99.8151 5.16137 100.313 4.8189 100.885 4.56341C101.462 4.30792 102.098 4.17745 102.797 4.17745C103.496 4.17745 104.1 4.30792 104.672 4.56341C105.25 4.8189 105.737 5.16137 106.145 5.59081C106.547 6.01482 106.871 6.53124 107.109 7.13464C107.347 7.73804 107.464 8.38492 107.464 9.0753C107.464 9.76567 107.347 10.3854 107.109 10.9888Z" fill="#212120"/>
<path d="M22.2627 18.305H18.0517C16.5845 18.305 15.3026 17.2559 14.9425 15.7501L11.1605 0.00195312H15.3291C16.7911 0.00195312 18.0729 1.0511 18.4331 2.54601L22.2627 18.305Z" fill="#212120"/>
<path d="M0 18.305H7.24081C8.41142 18.305 9.48669 17.6364 10.0482 16.5546L13.5282 9.89006H6.32975C5.16444 9.89006 4.09448 10.5533 3.52771 11.6241L0 18.305Z" fill="#212120"/>
<path d="M0.0582657 8.42234H4.86782C6.03843 8.42234 7.11369 7.75371 7.67516 6.67194L11.1605 0.00195312H6.38802C5.22801 0.00195312 4.15274 0.665146 3.58598 1.73604L0.0582657 8.42234Z" fill="#212120"/>
</svg>
